<?xml version="1.0" encoding="UTF-8"?>
<svg xmlns="http://www.w3.org/2000/svg" viewBox="0 0 1024 500" width="1024" height="500">
  <defs>
    <linearGradient id="bg" x1="0" y1="0" x2="1" y2="1">
      <stop offset="0%" stop-color="#0EA5E9"/>
      <stop offset="100%" stop-color="#0C4A6E"/>
    </linearGradient>
    <linearGradient id="gold" x1="0" y1="0" x2="0" y2="1">
      <stop offset="0%" stop-color="#FBBF24"/>
      <stop offset="50%" stop-color="#F59E0B"/>
      <stop offset="100%" stop-color="#B45309"/>
    </linearGradient>
    <radialGradient id="dropShine" cx="0.38" cy="0.3" r="0.55">
      <stop offset="0%" stop-color="#0EA5E9" stop-opacity="0.0"/>
      <stop offset="100%" stop-color="#0369A1" stop-opacity="0.3"/>
    </radialGradient>
  </defs>

  <rect width="1024" height="500" fill="url(#bg)"/>

  <!-- Decorative faint trident outline on the right (uses new v3 spear shape) -->
  <g opacity="0.10" transform="translate(700, 30) scale(0.78)">
    <path d="M 155 110 C 122 190, 140 280, 178 332 L 208 332 C 196 260, 188 180, 158 105 Z" fill="#FFFFFF"/>
    <path d="M 357 110 C 390 190, 372 280, 334 332 L 304 332 C 316 260, 324 180, 354 105 Z" fill="#FFFFFF"/>
    <path d="M 256 60 C 295 150, 322 215, 322 262 C 322 308, 294 340, 256 340 C 218 340, 190 308, 190 262 C 190 215, 217 150, 256 60 Z" fill="#FFFFFF"/>
    <rect x="138" y="332" width="236" height="36" rx="10" fill="#FFFFFF"/>
    <path d="M 232 368 L 280 368 L 274 432 L 256 452 L 238 432 Z" fill="#FFFFFF"/>
  </g>

  <!-- White icon tile, left side -->
  <g transform="translate(80, 110)">
    <rect width="240" height="240" rx="48" fill="#FFFFFF"/>
    <!-- Scale 0.469 makes the 512-unit trident fit into the 240px tile -->
    <g transform="scale(0.469)">
      <path d="M 155 110 C 122 190, 140 280, 178 332 L 208 332 C 196 260, 188 180, 158 105 Z" fill="#0EA5E9"/>
      <path d="M 357 110 C 390 190, 372 280, 334 332 L 304 332 C 316 260, 324 180, 354 105 Z" fill="#0EA5E9"/>
      <path d="M 256 60 C 295 150, 322 215, 322 262 C 322 308, 294 340, 256 340 C 218 340, 190 308, 190 262 C 190 215, 217 150, 256 60 Z" fill="#0EA5E9"/>
      <rect x="138" y="332" width="236" height="36" rx="10" fill="url(#gold)"/>
      <circle cx="172" cy="350" r="4" fill="#78350F"/>
      <circle cx="340" cy="350" r="4" fill="#78350F"/>
      <path d="M 232 368 L 280 368 L 274 432 L 256 452 L 238 432 Z" fill="#0EA5E9"/>
    </g>
  </g>

  <!-- Wordmark + tagline -->
  <g transform="translate(360, 200)">
    <text x="0" y="0" font-family="Helvetica, Arial, sans-serif" font-weight="700"
          font-size="96" fill="#FFFFFF" letter-spacing="-2">AquaRudra</text>
    <text x="0" y="62" font-family="Helvetica, Arial, sans-serif" font-weight="400"
          font-size="30" fill="#E0F2FE">India's aquaculture intelligence platform</text>
    <text x="0" y="108" font-family="Helvetica, Arial, sans-serif" font-weight="500"
          font-size="22" fill="#FCD34D" letter-spacing="2">DISEASE · WATER · YIELD · CERTIFICATES</text>
  </g>
</svg>
